<svg xmlns="http://www.w3.org/2000/svg" viewBox="0 0 24 24" fill="#3DDC84">
  <path d="M6.18 2c-.22 0-.4.18-.4.4v1.34c-.6.35-1 .99-1 1.72v11.08c0 .73.4 1.37 1 1.72v1.34c0 .22.18.4.4.4h.04c.22 0 .4-.18.4-.4v-1.34h10.76v1.34c0 .22.18.4.4.4h.04c.22 0 .4-.18.4-.4v-1.34c.6-.35 1-.99 1-1.72V5.46c0-.73-.4-1.37-1-1.72V2.4c0-.22-.18-.4-.4-.4h-.04c-.22 0-.4.18-.4.4v1.34H6.58V2.4c0-.22-.18-.4-.4-.4zm.4 2.8h10.84v10.4H6.58V4.8z"/>
  <circle cx="9" cy="8.5" r="1.5" fill="#fff"/>
  <circle cx="15" cy="8.5" r="1.5" fill="#fff"/>
  <path d="M9 12h6v2H9z" fill="#fff"/>
</svg>
